<svg width="66" height="41" viewBox="0 0 66 41" fill="none" xmlns="http://www.w3.org/2000/svg">
<ellipse cx="33" cy="20.5" rx="33" ry="20.5" fill="white"/>
<g filter="url(#filter0_d_4_11)">
<path d="M17.0625 19.0195H12.7383L12.7148 17.2031H16.6406C17.2891 17.2031 17.8555 17.0938 18.3398 16.875C18.8242 16.6562 19.1992 16.3438 19.4648 15.9375C19.7383 15.5234 19.875 15.0312 19.875 14.4609C19.875 13.8359 19.7539 13.3281 19.5117 12.9375C19.2773 12.5391 18.9141 12.25 18.4219 12.0703C17.9375 11.8828 17.3203 11.7891 16.5703 11.7891H13.2422V27H10.9805V9.9375H16.5703C17.4453 9.9375 18.2266 10.0273 18.9141 10.207C19.6016 10.3789 20.1836 10.6523 20.6602 11.0273C21.1445 11.3945 21.5117 11.8633 21.7617 12.4336C22.0117 13.0039 22.1367 13.6875 22.1367 14.4844C22.1367 15.1875 21.957 15.8242 21.5977 16.3945C21.2383 16.957 20.7383 17.418 20.0977 17.7773C19.4648 18.1367 18.7227 18.3672 17.8711 18.4688L17.0625 19.0195ZM16.957 27H11.8477L13.125 25.1602H16.957C17.6758 25.1602 18.2852 25.0352 18.7852 24.7852C19.293 24.5352 19.6797 24.1836 19.9453 23.7305C20.2109 23.2695 20.3438 22.7266 20.3438 22.1016C20.3438 21.4688 20.2305 20.9219 20.0039 20.4609C19.7773 20 19.4219 19.6445 18.9375 19.3945C18.4531 19.1445 17.8281 19.0195 17.0625 19.0195H13.8398L13.8633 17.2031H18.2695L18.75 17.8594C19.5703 17.9297 20.2656 18.1641 20.8359 18.5625C21.4062 18.9531 21.8398 19.4531 22.1367 20.0625C22.4414 20.6719 22.5938 21.3438 22.5938 22.0781C22.5938 23.1406 22.3594 24.0391 21.8906 24.7734C21.4297 25.5 20.7773 26.0547 19.9336 26.4375C19.0898 26.8125 18.0977 27 16.957 27ZM38.918 24.832V18.3047C38.918 17.8047 38.8164 17.3711 38.6133 17.0039C38.418 16.6289 38.1211 16.3398 37.7227 16.1367C37.3242 15.9336 36.832 15.832 36.2461 15.832C35.6992 15.832 35.2188 15.9258 34.8047 16.1133C34.3984 16.3008 34.0781 16.5469 33.8438 16.8516C33.6172 17.1562 33.5039 17.4844 33.5039 17.8359H31.3359C31.3359 17.3828 31.4531 16.9336 31.6875 16.4883C31.9219 16.043 32.2578 15.6406 32.6953 15.2812C33.1406 14.9141 33.6719 14.625 34.2891 14.4141C34.9141 14.1953 35.6094 14.0859 36.375 14.0859C37.2969 14.0859 38.1094 14.2422 38.8125 14.5547C39.5234 14.8672 40.0781 15.3398 40.4766 15.9727C40.8828 16.5977 41.0859 17.3828 41.0859 18.3281V24.2344C41.0859 24.6562 41.1211 25.1055 41.1914 25.582C41.2695 26.0586 41.3828 26.4688 41.5312 26.8125V27H39.2695C39.1602 26.75 39.0742 26.418 39.0117 26.0039C38.9492 25.582 38.918 25.1914 38.918 24.832ZM39.293 19.3125L39.3164 20.8359H37.125C36.5078 20.8359 35.957 20.8867 35.4727 20.9883C34.9883 21.082 34.582 21.2266 34.2539 21.4219C33.9258 21.6172 33.6758 21.8633 33.5039 22.1602C33.332 22.4492 33.2461 22.7891 33.2461 23.1797C33.2461 23.5781 33.3359 23.9414 33.5156 24.2695C33.6953 24.5977 33.9648 24.8594 34.3242 25.0547C34.6914 25.2422 35.1406 25.3359 35.6719 25.3359C36.3359 25.3359 36.9219 25.1953 37.4297 24.9141C37.9375 24.6328 38.3398 24.2891 38.6367 23.8828C38.9414 23.4766 39.1055 23.082 39.1289 22.6992L40.0547 23.7422C40 24.0703 39.8516 24.4336 39.6094 24.832C39.3672 25.2305 39.043 25.6133 38.6367 25.9805C38.2383 26.3398 37.7617 26.6406 37.207 26.8828C36.6602 27.1172 36.043 27.2344 35.3555 27.2344C34.4961 27.2344 33.7422 27.0664 33.0938 26.7305C32.4531 26.3945 31.9531 25.9453 31.5938 25.3828C31.2422 24.8125 31.0664 24.1758 31.0664 23.4727C31.0664 22.793 31.1992 22.1953 31.4648 21.6797C31.7305 21.1562 32.1133 20.7227 32.6133 20.3789C33.1133 20.0273 33.7148 19.7617 34.418 19.582C35.1211 19.4023 35.9062 19.3125 36.7734 19.3125H39.293Z" fill="#335D88"/>
<path d="M27.9609 9V27H25.7812V9H27.9609ZM57.4336 18.5039V24.75C57.2227 25.0625 56.8867 25.4141 56.4258 25.8047C55.9648 26.1875 55.3281 26.5234 54.5156 26.8125C53.7109 27.0938 52.6719 27.2344 51.3984 27.2344C50.3594 27.2344 49.4023 27.0547 48.5273 26.6953C47.6602 26.3281 46.9062 25.7969 46.2656 25.1016C45.6328 24.3984 45.1406 23.5469 44.7891 22.5469C44.4453 21.5391 44.2734 20.3984 44.2734 19.125V17.8008C44.2734 16.5273 44.4219 15.3906 44.7188 14.3906C45.0234 13.3906 45.4688 12.543 46.0547 11.8477C46.6406 11.1445 47.3594 10.6133 48.2109 10.2539C49.0625 9.88672 50.0391 9.70312 51.1406 9.70312C52.4453 9.70312 53.5352 9.92969 54.4102 10.3828C55.293 10.8281 55.9805 11.4453 56.4727 12.2344C56.9727 13.0234 57.293 13.9219 57.4336 14.9297H55.1719C55.0703 14.3125 54.8672 13.75 54.5625 13.2422C54.2656 12.7344 53.8398 12.3281 53.2852 12.0234C52.7305 11.7109 52.0156 11.5547 51.1406 11.5547C50.3516 11.5547 49.668 11.6992 49.0898 11.9883C48.5117 12.2773 48.0352 12.6914 47.6602 13.2305C47.2852 13.7695 47.0039 14.4219 46.8164 15.1875C46.6367 15.9531 46.5469 16.8164 46.5469 17.7773V19.125C46.5469 20.1094 46.6602 20.9883 46.8867 21.7617C47.1211 22.5352 47.4531 23.1953 47.8828 23.7422C48.3125 24.2812 48.8242 24.6914 49.418 24.9727C50.0195 25.2539 50.6836 25.3945 51.4102 25.3945C52.2148 25.3945 52.8672 25.3281 53.3672 25.1953C53.8672 25.0547 54.2578 24.8906 54.5391 24.7031C54.8203 24.5078 55.0352 24.3242 55.1836 24.1523V20.332H51.2344V18.5039H57.4336Z" fill="#EB41A2"/>
</g>
<defs>
<filter id="filter0_d_4_11" x="6.98047" y="9" width="54.4531" height="26.2344" filterUnits="userSpaceOnUse" color-interpolation-filters="sRGB">
<feFlood flood-opacity="0" result="BackgroundImageFix"/>
<feColorMatrix in="SourceAlpha" type="matrix" values="0 0 0 0 0 0 0 0 0 0 0 0 0 0 0 0 0 0 127 0" result="hardAlpha"/>
<feOffset dy="4"/>
<feGaussianBlur stdDeviation="2"/>
<feComposite in2="hardAlpha" operator="out"/>
<feColorMatrix type="matrix" values="0 0 0 0 0 0 0 0 0 0 0 0 0 0 0 0 0 0 0.25 0"/>
<feBlend mode="normal" in2="BackgroundImageFix" result="effect1_dropShadow_4_11"/>
<feBlend mode="normal" in="SourceGraphic" in2="effect1_dropShadow_4_11" result="shape"/>
</filter>
</defs>
</svg>
