<svg width="102" height="46" viewBox="0 0 102 46" fill="none" xmlns="http://www.w3.org/2000/svg">
<path d="M8.0625 14.0195H3.73828L3.71484 12.2031H7.64062C8.28906 12.2031 8.85547 12.0938 9.33984 11.875C9.82422 11.6562 10.1992 11.3438 10.4648 10.9375C10.7383 10.5234 10.875 10.0312 10.875 9.46094C10.875 8.83594 10.7539 8.32812 10.5117 7.9375C10.2773 7.53906 9.91406 7.25 9.42188 7.07031C8.9375 6.88281 8.32031 6.78906 7.57031 6.78906H4.24219V22H1.98047V4.9375H7.57031C8.44531 4.9375 9.22656 5.02734 9.91406 5.20703C10.6016 5.37891 11.1836 5.65234 11.6602 6.02734C12.1445 6.39453 12.5117 6.86328 12.7617 7.43359C13.0117 8.00391 13.1367 8.6875 13.1367 9.48438C13.1367 10.1875 12.957 10.8242 12.5977 11.3945C12.2383 11.957 11.7383 12.418 11.0977 12.7773C10.4648 13.1367 9.72266 13.3672 8.87109 13.4688L8.0625 14.0195ZM7.95703 22H2.84766L4.125 20.1602H7.95703C8.67578 20.1602 9.28516 20.0352 9.78516 19.7852C10.293 19.5352 10.6797 19.1836 10.9453 18.7305C11.2109 18.2695 11.3438 17.7266 11.3438 17.1016C11.3438 16.4688 11.2305 15.9219 11.0039 15.4609C10.7773 15 10.4219 14.6445 9.9375 14.3945C9.45312 14.1445 8.82812 14.0195 8.0625 14.0195H4.83984L4.86328 12.2031H9.26953L9.75 12.8594C10.5703 12.9297 11.2656 13.1641 11.8359 13.5625C12.4062 13.9531 12.8398 14.4531 13.1367 15.0625C13.4414 15.6719 13.5938 16.3438 13.5938 17.0781C13.5938 18.1406 13.3594 19.0391 12.8906 19.7734C12.4297 20.5 11.7773 21.0547 10.9336 21.4375C10.0898 21.8125 9.09766 22 7.95703 22ZM29.918 19.832V13.3047C29.918 12.8047 29.8164 12.3711 29.6133 12.0039C29.418 11.6289 29.1211 11.3398 28.7227 11.1367C28.3242 10.9336 27.832 10.832 27.2461 10.832C26.6992 10.832 26.2188 10.9258 25.8047 11.1133C25.3984 11.3008 25.0781 11.5469 24.8438 11.8516C24.6172 12.1562 24.5039 12.4844 24.5039 12.8359H22.3359C22.3359 12.3828 22.4531 11.9336 22.6875 11.4883C22.9219 11.043 23.2578 10.6406 23.6953 10.2812C24.1406 9.91406 24.6719 9.625 25.2891 9.41406C25.9141 9.19531 26.6094 9.08594 27.375 9.08594C28.2969 9.08594 29.1094 9.24219 29.8125 9.55469C30.5234 9.86719 31.0781 10.3398 31.4766 10.9727C31.8828 11.5977 32.0859 12.3828 32.0859 13.3281V19.2344C32.0859 19.6562 32.1211 20.1055 32.1914 20.582C32.2695 21.0586 32.3828 21.4688 32.5312 21.8125V22H30.2695C30.1602 21.75 30.0742 21.418 30.0117 21.0039C29.9492 20.582 29.918 20.1914 29.918 19.832ZM30.293 14.3125L30.3164 15.8359H28.125C27.5078 15.8359 26.957 15.8867 26.4727 15.9883C25.9883 16.082 25.582 16.2266 25.2539 16.4219C24.9258 16.6172 24.6758 16.8633 24.5039 17.1602C24.332 17.4492 24.2461 17.7891 24.2461 18.1797C24.2461 18.5781 24.3359 18.9414 24.5156 19.2695C24.6953 19.5977 24.9648 19.8594 25.3242 20.0547C25.6914 20.2422 26.1406 20.3359 26.6719 20.3359C27.3359 20.3359 27.9219 20.1953 28.4297 19.9141C28.9375 19.6328 29.3398 19.2891 29.6367 18.8828C29.9414 18.4766 30.1055 18.082 30.1289 17.6992L31.0547 18.7422C31 19.0703 30.8516 19.4336 30.6094 19.832C30.3672 20.2305 30.043 20.6133 29.6367 20.9805C29.2383 21.3398 28.7617 21.6406 28.207 21.8828C27.6602 22.1172 27.043 22.2344 26.3555 22.2344C25.4961 22.2344 24.7422 22.0664 24.0938 21.7305C23.4531 21.3945 22.9531 20.9453 22.5938 20.3828C22.2422 19.8125 22.0664 19.1758 22.0664 18.4727C22.0664 17.793 22.1992 17.1953 22.4648 16.6797C22.7305 16.1562 23.1133 15.7227 23.6133 15.3789C24.1133 15.0273 24.7148 14.7617 25.418 14.582C26.1211 14.4023 26.9062 14.3125 27.7734 14.3125H30.293ZM41.9062 14.0195H37.582L37.5586 12.2031H41.4844C42.1328 12.2031 42.6992 12.0938 43.1836 11.875C43.668 11.6562 44.043 11.3438 44.3086 10.9375C44.582 10.5234 44.7188 10.0312 44.7188 9.46094C44.7188 8.83594 44.5977 8.32812 44.3555 7.9375C44.1211 7.53906 43.7578 7.25 43.2656 7.07031C42.7812 6.88281 42.1641 6.78906 41.4141 6.78906H38.0859V22H35.8242V4.9375H41.4141C42.2891 4.9375 43.0703 5.02734 43.7578 5.20703C44.4453 5.37891 45.0273 5.65234 45.5039 6.02734C45.9883 6.39453 46.3555 6.86328 46.6055 7.43359C46.8555 8.00391 46.9805 8.6875 46.9805 9.48438C46.9805 10.1875 46.8008 10.8242 46.4414 11.3945C46.082 11.957 45.582 12.418 44.9414 12.7773C44.3086 13.1367 43.5664 13.3672 42.7148 13.4688L41.9062 14.0195ZM41.8008 22H36.6914L37.9688 20.1602H41.8008C42.5195 20.1602 43.1289 20.0352 43.6289 19.7852C44.1367 19.5352 44.5234 19.1836 44.7891 18.7305C45.0547 18.2695 45.1875 17.7266 45.1875 17.1016C45.1875 16.4688 45.0742 15.9219 44.8477 15.4609C44.6211 15 44.2656 14.6445 43.7812 14.3945C43.2969 14.1445 42.6719 14.0195 41.9062 14.0195H38.6836L38.707 12.2031H43.1133L43.5938 12.8594C44.4141 12.9297 45.1094 13.1641 45.6797 13.5625C46.25 13.9531 46.6836 14.4531 46.9805 15.0625C47.2852 15.6719 47.4375 16.3438 47.4375 17.0781C47.4375 18.1406 47.2031 19.0391 46.7344 19.7734C46.2734 20.5 45.6211 21.0547 44.7773 21.4375C43.9336 21.8125 42.9414 22 41.8008 22ZM63.7617 19.832V13.3047C63.7617 12.8047 63.6602 12.3711 63.457 12.0039C63.2617 11.6289 62.9648 11.3398 62.5664 11.1367C62.168 10.9336 61.6758 10.832 61.0898 10.832C60.543 10.832 60.0625 10.9258 59.6484 11.1133C59.2422 11.3008 58.9219 11.5469 58.6875 11.8516C58.4609 12.1562 58.3477 12.4844 58.3477 12.8359H56.1797C56.1797 12.3828 56.2969 11.9336 56.5312 11.4883C56.7656 11.043 57.1016 10.6406 57.5391 10.2812C57.9844 9.91406 58.5156 9.625 59.1328 9.41406C59.7578 9.19531 60.4531 9.08594 61.2188 9.08594C62.1406 9.08594 62.9531 9.24219 63.6562 9.55469C64.3672 9.86719 64.9219 10.3398 65.3203 10.9727C65.7266 11.5977 65.9297 12.3828 65.9297 13.3281V19.2344C65.9297 19.6562 65.9648 20.1055 66.0352 20.582C66.1133 21.0586 66.2266 21.4688 66.375 21.8125V22H64.1133C64.0039 21.75 63.918 21.418 63.8555 21.0039C63.793 20.582 63.7617 20.1914 63.7617 19.832ZM64.1367 14.3125L64.1602 15.8359H61.9688C61.3516 15.8359 60.8008 15.8867 60.3164 15.9883C59.832 16.082 59.4258 16.2266 59.0977 16.4219C58.7695 16.6172 58.5195 16.8633 58.3477 17.1602C58.1758 17.4492 58.0898 17.7891 58.0898 18.1797C58.0898 18.5781 58.1797 18.9414 58.3594 19.2695C58.5391 19.5977 58.8086 19.8594 59.168 20.0547C59.5352 20.2422 59.9844 20.3359 60.5156 20.3359C61.1797 20.3359 61.7656 20.1953 62.2734 19.9141C62.7812 19.6328 63.1836 19.2891 63.4805 18.8828C63.7852 18.4766 63.9492 18.082 63.9727 17.6992L64.8984 18.7422C64.8438 19.0703 64.6953 19.4336 64.4531 19.832C64.2109 20.2305 63.8867 20.6133 63.4805 20.9805C63.082 21.3398 62.6055 21.6406 62.0508 21.8828C61.5039 22.1172 60.8867 22.2344 60.1992 22.2344C59.3398 22.2344 58.5859 22.0664 57.9375 21.7305C57.2969 21.3945 56.7969 20.9453 56.4375 20.3828C56.0859 19.8125 55.9102 19.1758 55.9102 18.4727C55.9102 17.793 56.043 17.1953 56.3086 16.6797C56.5742 16.1562 56.957 15.7227 57.457 15.3789C57.957 15.0273 58.5586 14.7617 59.2617 14.582C59.9648 14.4023 60.75 14.3125 61.6172 14.3125H64.1367ZM75.75 14.0195H71.4258L71.4023 12.2031H75.3281C75.9766 12.2031 76.543 12.0938 77.0273 11.875C77.5117 11.6562 77.8867 11.3438 78.1523 10.9375C78.4258 10.5234 78.5625 10.0312 78.5625 9.46094C78.5625 8.83594 78.4414 8.32812 78.1992 7.9375C77.9648 7.53906 77.6016 7.25 77.1094 7.07031C76.625 6.88281 76.0078 6.78906 75.2578 6.78906H71.9297V22H69.668V4.9375H75.2578C76.1328 4.9375 76.9141 5.02734 77.6016 5.20703C78.2891 5.37891 78.8711 5.65234 79.3477 6.02734C79.832 6.39453 80.1992 6.86328 80.4492 7.43359C80.6992 8.00391 80.8242 8.6875 80.8242 9.48438C80.8242 10.1875 80.6445 10.8242 80.2852 11.3945C79.9258 11.957 79.4258 12.418 78.7852 12.7773C78.1523 13.1367 77.4102 13.3672 76.5586 13.4688L75.75 14.0195ZM75.6445 22H70.5352L71.8125 20.1602H75.6445C76.3633 20.1602 76.9727 20.0352 77.4727 19.7852C77.9805 19.5352 78.3672 19.1836 78.6328 18.7305C78.8984 18.2695 79.0312 17.7266 79.0312 17.1016C79.0312 16.4688 78.918 15.9219 78.6914 15.4609C78.4648 15 78.1094 14.6445 77.625 14.3945C77.1406 14.1445 76.5156 14.0195 75.75 14.0195H72.5273L72.5508 12.2031H76.957L77.4375 12.8594C78.2578 12.9297 78.9531 13.1641 79.5234 13.5625C80.0938 13.9531 80.5273 14.4531 80.8242 15.0625C81.1289 15.6719 81.2812 16.3438 81.2812 17.0781C81.2812 18.1406 81.0469 19.0391 80.5781 19.7734C80.1172 20.5 79.4648 21.0547 78.6211 21.4375C77.7773 21.8125 76.7852 22 75.6445 22ZM97.6055 19.832V13.3047C97.6055 12.8047 97.5039 12.3711 97.3008 12.0039C97.1055 11.6289 96.8086 11.3398 96.4102 11.1367C96.0117 10.9336 95.5195 10.832 94.9336 10.832C94.3867 10.832 93.9062 10.9258 93.4922 11.1133C93.0859 11.3008 92.7656 11.5469 92.5312 11.8516C92.3047 12.1562 92.1914 12.4844 92.1914 12.8359H90.0234C90.0234 12.3828 90.1406 11.9336 90.375 11.4883C90.6094 11.043 90.9453 10.6406 91.3828 10.2812C91.8281 9.91406 92.3594 9.625 92.9766 9.41406C93.6016 9.19531 94.2969 9.08594 95.0625 9.08594C95.9844 9.08594 96.7969 9.24219 97.5 9.55469C98.2109 9.86719 98.7656 10.3398 99.1641 10.9727C99.5703 11.5977 99.7734 12.3828 99.7734 13.3281V19.2344C99.7734 19.6562 99.8086 20.1055 99.8789 20.582C99.957 21.0586 100.07 21.4688 100.219 21.8125V22H97.957C97.8477 21.75 97.7617 21.418 97.6992 21.0039C97.6367 20.582 97.6055 20.1914 97.6055 19.832ZM97.9805 14.3125L98.0039 15.8359H95.8125C95.1953 15.8359 94.6445 15.8867 94.1602 15.9883C93.6758 16.082 93.2695 16.2266 92.9414 16.4219C92.6133 16.6172 92.3633 16.8633 92.1914 17.1602C92.0195 17.4492 91.9336 17.7891 91.9336 18.1797C91.9336 18.5781 92.0234 18.9414 92.2031 19.2695C92.3828 19.5977 92.6523 19.8594 93.0117 20.0547C93.3789 20.2422 93.8281 20.3359 94.3594 20.3359C95.0234 20.3359 95.6094 20.1953 96.1172 19.9141C96.625 19.6328 97.0273 19.2891 97.3242 18.8828C97.6289 18.4766 97.793 18.082 97.8164 17.6992L98.7422 18.7422C98.6875 19.0703 98.5391 19.4336 98.2969 19.832C98.0547 20.2305 97.7305 20.6133 97.3242 20.9805C96.9258 21.3398 96.4492 21.6406 95.8945 21.8828C95.3477 22.1172 94.7305 22.2344 94.043 22.2344C93.1836 22.2344 92.4297 22.0664 91.7812 21.7305C91.1406 21.3945 90.6406 20.9453 90.2812 20.3828C89.9297 19.8125 89.7539 19.1758 89.7539 18.4727C89.7539 17.793 89.8867 17.1953 90.1523 16.6797C90.418 16.1562 90.8008 15.7227 91.3008 15.3789C91.8008 15.0273 92.4023 14.7617 93.1055 14.582C93.8086 14.4023 94.5938 14.3125 95.4609 14.3125H97.9805Z" fill="#335D88"/>
<path d="M18.9609 4V22H16.7812V4H18.9609ZM52.8047 4V22H50.625V4H52.8047ZM86.6484 4V22H84.4688V4H86.6484Z" fill="#EB41A2"/>
<line y1="27" x2="102" y2="27" stroke="#335D88" stroke-width="2"/>
<path d="M20.4004 32.4902H21.877V41.7979C21.877 42.6357 21.707 43.3506 21.3672 43.9424C21.0273 44.5342 20.5527 44.9824 19.9434 45.2871C19.3398 45.5977 18.6426 45.7529 17.8516 45.7529C17.5234 45.7529 17.1367 45.7002 16.6914 45.5947C16.252 45.4951 15.8184 45.3223 15.3906 45.0762C14.9688 44.8359 14.6143 44.5107 14.3271 44.1006L15.1797 43.1338C15.5781 43.6143 15.9941 43.9482 16.4277 44.1357C16.8672 44.3232 17.3008 44.417 17.7285 44.417C18.2441 44.417 18.6895 44.3203 19.0645 44.127C19.4395 43.9336 19.7295 43.6465 19.9346 43.2656C20.1455 42.8906 20.251 42.4277 20.251 41.877V34.582L20.4004 32.4902ZM13.8525 37.3506V37.166C13.8525 36.4395 13.9375 35.7803 14.1074 35.1885C14.2832 34.5908 14.5322 34.0781 14.8545 33.6504C15.1826 33.2227 15.5781 32.8945 16.041 32.666C16.5039 32.4316 17.0254 32.3145 17.6055 32.3145C18.2031 32.3145 18.7246 32.4199 19.1699 32.6309C19.6211 32.8359 20.002 33.1377 20.3125 33.5361C20.6289 33.9287 20.8779 34.4033 21.0596 34.96C21.2412 35.5166 21.3672 36.1465 21.4375 36.8496V37.6582C21.373 38.3555 21.2471 38.9824 21.0596 39.5391C20.8779 40.0957 20.6289 40.5703 20.3125 40.9629C20.002 41.3555 19.6211 41.6572 19.1699 41.8682C18.7188 42.0732 18.1914 42.1758 17.5879 42.1758C17.0195 42.1758 16.5039 42.0557 16.041 41.8154C15.584 41.5752 15.1914 41.2383 14.8633 40.8047C14.5352 40.3711 14.2832 39.8613 14.1074 39.2754C13.9375 38.6836 13.8525 38.042 13.8525 37.3506ZM15.4785 37.166V37.3506C15.4785 37.8252 15.5254 38.2705 15.6191 38.6865C15.7188 39.1025 15.8682 39.4688 16.0674 39.7852C16.2725 40.1016 16.5332 40.3506 16.8496 40.5322C17.166 40.708 17.5439 40.7959 17.9834 40.7959C18.5225 40.7959 18.9678 40.6816 19.3193 40.4531C19.6709 40.2246 19.9492 39.9229 20.1543 39.5479C20.3652 39.1729 20.5293 38.7656 20.6465 38.3262V36.208C20.582 35.8857 20.4824 35.5752 20.3477 35.2764C20.2188 34.9717 20.0488 34.7021 19.8379 34.4678C19.6328 34.2275 19.3779 34.0371 19.0732 33.8965C18.7686 33.7559 18.4111 33.6855 18.001 33.6855C17.5557 33.6855 17.1719 33.7793 16.8496 33.9668C16.5332 34.1484 16.2725 34.4004 16.0674 34.7227C15.8682 35.0391 15.7188 35.4082 15.6191 35.8301C15.5254 36.2461 15.4785 36.6914 15.4785 37.166ZM28.293 42.1758C27.6309 42.1758 27.0303 42.0645 26.4912 41.8418C25.958 41.6133 25.498 41.2939 25.1113 40.8838C24.7305 40.4736 24.4375 39.9873 24.2324 39.4248C24.0273 38.8623 23.9248 38.2471 23.9248 37.5791V37.21C23.9248 36.4365 24.0391 35.748 24.2676 35.1445C24.4961 34.5352 24.8066 34.0195 25.1992 33.5977C25.5918 33.1758 26.0371 32.8564 26.5352 32.6396C27.0332 32.4229 27.5488 32.3145 28.082 32.3145C28.7617 32.3145 29.3477 32.4316 29.8398 32.666C30.3379 32.9004 30.7451 33.2285 31.0615 33.6504C31.3779 34.0664 31.6123 34.5586 31.7646 35.127C31.917 35.6895 31.9932 36.3047 31.9932 36.9727V37.7021H24.8916V36.375H30.3672V36.252C30.3438 35.8301 30.2559 35.4199 30.1035 35.0215C29.957 34.623 29.7227 34.2949 29.4004 34.0371C29.0781 33.7793 28.6387 33.6504 28.082 33.6504C27.7129 33.6504 27.373 33.7295 27.0625 33.8877C26.752 34.04 26.4854 34.2686 26.2627 34.5732C26.04 34.8779 25.8672 35.25 25.7441 35.6895C25.6211 36.1289 25.5596 36.6357 25.5596 37.21V37.5791C25.5596 38.0303 25.6211 38.4551 25.7441 38.8535C25.873 39.2461 26.0576 39.5918 26.2979 39.8906C26.5439 40.1895 26.8398 40.4238 27.1855 40.5938C27.5371 40.7637 27.9355 40.8486 28.3809 40.8486C28.9551 40.8486 29.4414 40.7314 29.8398 40.4971C30.2383 40.2627 30.5869 39.9492 30.8857 39.5566L31.8701 40.3389C31.665 40.6494 31.4043 40.9453 31.0879 41.2266C30.7715 41.5078 30.3818 41.7363 29.9189 41.9121C29.4619 42.0879 28.9199 42.1758 28.293 42.1758ZM35.5176 34.5205V42H33.8916V32.4902H35.4297L35.5176 34.5205ZM35.1309 36.8848L34.4541 36.8584C34.46 36.208 34.5566 35.6074 34.7441 35.0566C34.9316 34.5 35.1953 34.0166 35.5352 33.6064C35.875 33.1963 36.2793 32.8799 36.748 32.6572C37.2227 32.4287 37.7471 32.3145 38.3213 32.3145C38.79 32.3145 39.2119 32.3789 39.5869 32.5078C39.9619 32.6309 40.2812 32.8301 40.5449 33.1055C40.8145 33.3809 41.0195 33.7383 41.1602 34.1777C41.3008 34.6113 41.3711 35.1416 41.3711 35.7686V42H39.7363V35.751C39.7363 35.2529 39.6631 34.8545 39.5166 34.5557C39.3701 34.251 39.1562 34.0312 38.875 33.8965C38.5938 33.7559 38.248 33.6855 37.8379 33.6855C37.4336 33.6855 37.0645 33.7705 36.7305 33.9404C36.4023 34.1104 36.1182 34.3447 35.8779 34.6436C35.6436 34.9424 35.459 35.2852 35.3242 35.6719C35.1953 36.0527 35.1309 36.457 35.1309 36.8848ZM47.7871 42.1758C47.125 42.1758 46.5244 42.0645 45.9854 41.8418C45.4521 41.6133 44.9922 41.2939 44.6055 40.8838C44.2246 40.4736 43.9316 39.9873 43.7266 39.4248C43.5215 38.8623 43.4189 38.2471 43.4189 37.5791V37.21C43.4189 36.4365 43.5332 35.748 43.7617 35.1445C43.9902 34.5352 44.3008 34.0195 44.6934 33.5977C45.0859 33.1758 45.5312 32.8564 46.0293 32.6396C46.5273 32.4229 47.043 32.3145 47.5762 32.3145C48.2559 32.3145 48.8418 32.4316 49.334 32.666C49.832 32.9004 50.2393 33.2285 50.5557 33.6504C50.8721 34.0664 51.1064 34.5586 51.2588 35.127C51.4111 35.6895 51.4873 36.3047 51.4873 36.9727V37.7021H44.3857V36.375H49.8613V36.252C49.8379 35.8301 49.75 35.4199 49.5977 35.0215C49.4512 34.623 49.2168 34.2949 48.8945 34.0371C48.5723 33.7793 48.1328 33.6504 47.5762 33.6504C47.207 33.6504 46.8672 33.7295 46.5566 33.8877C46.2461 34.04 45.9795 34.2686 45.7568 34.5732C45.5342 34.8779 45.3613 35.25 45.2383 35.6895C45.1152 36.1289 45.0537 36.6357 45.0537 37.21V37.5791C45.0537 38.0303 45.1152 38.4551 45.2383 38.8535C45.3672 39.2461 45.5518 39.5918 45.792 39.8906C46.0381 40.1895 46.334 40.4238 46.6797 40.5938C47.0312 40.7637 47.4297 40.8486 47.875 40.8486C48.4492 40.8486 48.9355 40.7314 49.334 40.4971C49.7324 40.2627 50.0811 39.9492 50.3799 39.5566L51.3643 40.3389C51.1592 40.6494 50.8984 40.9453 50.582 41.2266C50.2656 41.5078 49.876 41.7363 49.4131 41.9121C48.9561 42.0879 48.4141 42.1758 47.7871 42.1758ZM55.0117 33.9844V42H53.3857V32.4902H54.9678L55.0117 33.9844ZM57.9824 32.4375L57.9736 33.9492C57.8389 33.9199 57.71 33.9023 57.5869 33.8965C57.4697 33.8848 57.335 33.8789 57.1826 33.8789C56.8076 33.8789 56.4766 33.9375 56.1895 34.0547C55.9023 34.1719 55.6592 34.3359 55.46 34.5469C55.2607 34.7578 55.1025 35.0098 54.9854 35.3027C54.874 35.5898 54.8008 35.9062 54.7656 36.252L54.3086 36.5156C54.3086 35.9414 54.3643 35.4023 54.4756 34.8984C54.5928 34.3945 54.7715 33.9492 55.0117 33.5625C55.252 33.1699 55.5566 32.8652 55.9258 32.6484C56.3008 32.4258 56.7461 32.3145 57.2617 32.3145C57.3789 32.3145 57.5137 32.3291 57.666 32.3584C57.8184 32.3818 57.9238 32.4082 57.9824 32.4375ZM64.7412 40.374V35.4785C64.7412 35.1035 64.665 34.7783 64.5127 34.5029C64.3662 34.2217 64.1436 34.0049 63.8447 33.8525C63.5459 33.7002 63.1768 33.624 62.7373 33.624C62.3271 33.624 61.9668 33.6943 61.6562 33.835C61.3516 33.9756 61.1113 34.1602 60.9355 34.3887C60.7656 34.6172 60.6807 34.8633 60.6807 35.127H59.0547C59.0547 34.7871 59.1426 34.4502 59.3184 34.1162C59.4941 33.7822 59.7461 33.4805 60.0742 33.2109C60.4082 32.9355 60.8066 32.7188 61.2695 32.5605C61.7383 32.3965 62.2598 32.3145 62.834 32.3145C63.5254 32.3145 64.1348 32.4316 64.6621 32.666C65.1953 32.9004 65.6113 33.2549 65.9102 33.7295C66.2148 34.1982 66.3672 34.7871 66.3672 35.4961V39.9258C66.3672 40.2422 66.3936 40.5791 66.4463 40.9365C66.5049 41.2939 66.5898 41.6016 66.7012 41.8594V42H65.0049C64.9229 41.8125 64.8584 41.5635 64.8115 41.2529C64.7646 40.9365 64.7412 40.6436 64.7412 40.374ZM65.0225 36.2344L65.04 37.377H63.3965C62.9336 37.377 62.5205 37.415 62.1572 37.4912C61.7939 37.5615 61.4893 37.6699 61.2432 37.8164C60.9971 37.9629 60.8096 38.1475 60.6807 38.3701C60.5518 38.5869 60.4873 38.8418 60.4873 39.1348C60.4873 39.4336 60.5547 39.7061 60.6895 39.9521C60.8242 40.1982 61.0264 40.3945 61.2959 40.541C61.5713 40.6816 61.9082 40.752 62.3066 40.752C62.8047 40.752 63.2441 40.6465 63.625 40.4355C64.0059 40.2246 64.3076 39.9668 64.5303 39.6621C64.7588 39.3574 64.8818 39.0615 64.8994 38.7744L65.5938 39.5566C65.5527 39.8027 65.4414 40.0752 65.2598 40.374C65.0781 40.6729 64.835 40.96 64.5303 41.2354C64.2314 41.5049 63.874 41.7305 63.458 41.9121C63.0479 42.0879 62.585 42.1758 62.0693 42.1758C61.4248 42.1758 60.8594 42.0498 60.373 41.7979C59.8926 41.5459 59.5176 41.209 59.248 40.7871C58.9844 40.3594 58.8525 39.8818 58.8525 39.3545C58.8525 38.8447 58.9521 38.3965 59.1514 38.0098C59.3506 37.6172 59.6377 37.292 60.0127 37.0342C60.3877 36.7705 60.8389 36.5713 61.3662 36.4365C61.8936 36.3018 62.4824 36.2344 63.1328 36.2344H65.0225ZM72.9062 32.4902V33.7383H67.7646V32.4902H72.9062ZM69.5049 30.1787H71.1309V39.6445C71.1309 39.9668 71.1807 40.21 71.2803 40.374C71.3799 40.5381 71.5088 40.6465 71.667 40.6992C71.8252 40.752 71.9951 40.7783 72.1768 40.7783C72.3115 40.7783 72.4521 40.7666 72.5986 40.7432C72.751 40.7139 72.8652 40.6904 72.9414 40.6729L72.9502 42C72.8213 42.041 72.6514 42.0791 72.4404 42.1143C72.2354 42.1553 71.9863 42.1758 71.6934 42.1758C71.2949 42.1758 70.9287 42.0967 70.5947 41.9385C70.2607 41.7803 69.9941 41.5166 69.7949 41.1475C69.6016 40.7725 69.5049 40.2686 69.5049 39.6357V30.1787ZM74.207 37.3506V37.1484C74.207 36.4629 74.3066 35.8271 74.5059 35.2412C74.7051 34.6494 74.9922 34.1367 75.3672 33.7031C75.7422 33.2637 76.1963 32.9238 76.7295 32.6836C77.2627 32.4375 77.8604 32.3145 78.5225 32.3145C79.1904 32.3145 79.791 32.4375 80.3242 32.6836C80.8633 32.9238 81.3203 33.2637 81.6953 33.7031C82.0762 34.1367 82.3662 34.6494 82.5654 35.2412C82.7646 35.8271 82.8643 36.4629 82.8643 37.1484V37.3506C82.8643 38.0361 82.7646 38.6719 82.5654 39.2578C82.3662 39.8438 82.0762 40.3564 81.6953 40.7959C81.3203 41.2295 80.8662 41.5693 80.333 41.8154C79.8057 42.0557 79.208 42.1758 78.54 42.1758C77.8721 42.1758 77.2715 42.0557 76.7383 41.8154C76.2051 41.5693 75.748 41.2295 75.3672 40.7959C74.9922 40.3564 74.7051 39.8438 74.5059 39.2578C74.3066 38.6719 74.207 38.0361 74.207 37.3506ZM75.833 37.1484V37.3506C75.833 37.8252 75.8887 38.2734 76 38.6953C76.1113 39.1113 76.2783 39.4805 76.501 39.8027C76.7295 40.125 77.0137 40.3799 77.3535 40.5674C77.6934 40.749 78.0889 40.8398 78.54 40.8398C78.9854 40.8398 79.375 40.749 79.709 40.5674C80.0488 40.3799 80.3301 40.125 80.5527 39.8027C80.7754 39.4805 80.9424 39.1113 81.0537 38.6953C81.1709 38.2734 81.2295 37.8252 81.2295 37.3506V37.1484C81.2295 36.6797 81.1709 36.2373 81.0537 35.8213C80.9424 35.3994 80.7725 35.0273 80.5439 34.7051C80.3213 34.377 80.04 34.1191 79.7002 33.9316C79.3662 33.7441 78.9736 33.6504 78.5225 33.6504C78.0771 33.6504 77.6846 33.7441 77.3447 33.9316C77.0107 34.1191 76.7295 34.377 76.501 34.7051C76.2783 35.0273 76.1113 35.3994 76 35.8213C75.8887 36.2373 75.833 36.6797 75.833 37.1484ZM86.5293 33.9844V42H84.9033V32.4902H86.4854L86.5293 33.9844ZM89.5 32.4375L89.4912 33.9492C89.3564 33.9199 89.2275 33.9023 89.1045 33.8965C88.9873 33.8848 88.8525 33.8789 88.7002 33.8789C88.3252 33.8789 87.9941 33.9375 87.707 34.0547C87.4199 34.1719 87.1768 34.3359 86.9775 34.5469C86.7783 34.7578 86.6201 35.0098 86.5029 35.3027C86.3916 35.5898 86.3184 35.9062 86.2832 36.252L85.8262 36.5156C85.8262 35.9414 85.8818 35.4023 85.9932 34.8984C86.1104 34.3945 86.2891 33.9492 86.5293 33.5625C86.7695 33.1699 87.0742 32.8652 87.4434 32.6484C87.8184 32.4258 88.2637 32.3145 88.7793 32.3145C88.8965 32.3145 89.0312 32.3291 89.1836 32.3584C89.3359 32.3818 89.4414 32.4082 89.5 32.4375Z" fill="#EB41A2"/>
</svg>
