<svg width="242" height="88" viewBox="0 0 242 88" fill="none" xmlns="http://www.w3.org/2000/svg">
<path d="M137.197 1.257C130.27 2.866 126.83 6.516 126.796 12.293C126.757 19.02 130.525 22.109 142.608 25.259C148.481 26.789 150.477 29.441 147.699 32.017C144.546 34.939 138.376 33.044 137.599 28.912C137.214 26.85 137.233 26.856 130.762 27.216L125.027 27.534L125.303 29.34C125.728 32.124 128.025 36.422 129.983 38.098C135.785 43.062 151.763 42.553 157.233 37.226L158.833 35.668L159.14 37.479C160.265 44.142 167.032 50.402 174.817 51.983L177.317 52.492L175.84 54.427C170.966 60.811 170.828 73.867 175.564 80.648C182.812 91.023 203.208 90.722 209.919 80.142L211.168 78.173V87.564H242.778V77.467H223.9V48.051H211.168L211.143 52.551C211.121 56.227 211.022 56.894 210.595 56.193C208.176 52.225 203.465 48.928 198.847 47.975L196.358 47.46L198.884 45.562C206.742 39.656 211.636 28.881 210.379 20.255C207.074 -2.414 174.421 -2.765 161.984 19.732C161.182 21.18 160.499 22.412 160.465 22.469C160.431 22.526 159.312 21.513 157.976 20.222C155.206 17.539 152.981 16.557 145.418 14.684C138.381 12.94 136.941 11.717 139.306 9.492C141.556 7.377 146.455 8.747 147.558 11.801C148.205 13.59 148.087 13.573 155.568 13.078L159.894 12.791L159.618 11.067C158.341 3.08 148.289 -1.319 137.194 1.26L137.197 1.257ZM2.635 21.268V41.023H15.367V25.217H16.661C18.703 25.217 19.938 26.719 23.875 33.998L27.557 40.801L34.636 40.922C38.529 40.989 41.712 40.925 41.712 40.781C41.712 38.556 33.778 25.717 31.576 24.379L30.369 23.645L32.805 22.371C41.836 17.643 40.126 4.098 30.229 1.975C28.98 1.708 22.655 1.508 15.345 1.508H2.635V21.263V21.268ZM195.401 4.952C215.271 10.138 213.452 38.016 192.577 48.194C171.309 58.564 152.355 41.54 162.464 21.149C168.362 9.252 183.448 1.833 195.398 4.955L195.401 4.952ZM24.14 10.417C28.612 12.678 25.645 16.852 19.311 17.212L15.368 17.437V9.852L19.21 9.858C21.409 9.861 23.516 10.1 24.14 10.415V10.417ZM188.373 13.91C184.877 14.838 181.322 18.371 181.319 20.919C181.313 25.082 184.641 26.583 189.877 24.781C193.08 23.679 193.896 23.679 194.489 24.784C195.493 26.663 192.202 28.578 190.282 27.231C189.317 26.556 185.759 28.685 185.723 29.959C185.667 31.877 190.521 32.603 193.494 31.121C202.936 26.416 200.255 16.316 190.462 19.694C186.547 21.044 185.706 21.103 185.706 20.017C185.706 18.313 188.369 17.081 189.531 18.242C190.006 18.717 193.606 16.33 193.606 15.539C193.606 14.358 190.417 13.362 188.369 13.908L188.373 13.91ZM174.201 23.383C172.106 24.899 172.007 24.505 175.849 29.959C178.214 33.314 179.123 34.971 179.033 35.756C178.876 37.098 177.371 37.455 176.313 36.4C175.641 35.728 175.466 35.781 173.875 37.145C169.856 40.588 175.965 43.543 180.504 40.354C185.491 36.85 185.499 34.676 180.541 27.436C176.696 21.819 176.519 21.707 174.199 23.386L174.201 23.383ZM13.044 47.621C5.861 48.754 1.656 52.954 1.6 59.051C1.544 65.272 5.577 68.816 15.567 71.316C21.69 72.849 23.706 74.019 23.706 76.035C23.706 81.713 13.542 81.145 12.467 75.408C12.09 73.406 12.138 73.417 5.655 73.768L-0.0940018 74.08L0.192998 75.88C1.504 84.132 6.302 87.566 16.992 87.901C25.469 88.165 28.383 87.344 32.084 83.643L34.618 81.109L35.549 82.366C40.935 89.65 59.129 90.14 65.103 83.159C66.85 81.12 68.81 77.278 69.01 75.509C69.151 74.263 69.111 74.241 63.787 72.626L58.424 70.998L57.704 73.164C55.251 80.547 45.99 80.631 43.956 73.291C43.264 70.796 43.348 64.837 44.113 62.269C45.958 56.062 53.751 54.788 56.913 60.179C58.232 62.429 57.878 62.387 63.863 61.034C69.561 59.746 69.316 59.974 68.017 57.175C62.864 46.088 45.542 43.487 36.357 52.416L33.795 54.908L32.732 53.094C30.083 48.571 21.727 46.248 13.05 47.621H13.044ZM134.342 47.632C129.479 48.476 124.675 51.536 121.961 55.515C121.235 56.581 121.216 56.494 121.193 52.328L121.17 48.047H108.438V61.657H95.706V48.047H82.974V87.56H95.706V71.754H108.438V87.56H121.17V78.627L122.545 80.7C128.266 89.334 145.959 90.85 154.011 83.394C163.329 74.768 161.501 55.145 150.875 49.723C146.774 47.63 139.577 46.719 134.34 47.628L134.342 47.632ZM20.183 55.727C20.917 56.107 21.778 57.136 22.245 58.194L23.047 60.011L31.625 59.598L31.344 61.837C30.973 64.799 30.807 64.911 28.346 63.823C27.187 63.311 23.944 62.318 21.135 61.612C14.489 59.947 13.662 59.59 13.322 58.237C12.692 55.734 17.088 54.125 20.187 55.728L20.183 55.727ZM141.871 57.279C148.373 59.085 149.69 74.008 143.66 77.557C139.157 80.206 133.459 77.951 132.123 72.987C129.468 63.124 134.387 55.201 141.871 57.279V57.279ZM194.951 57.268C202.505 59.366 202.351 76.342 194.76 78.387C188.657 80.029 184.596 75.788 184.627 67.806C184.661 59.512 188.59 55.501 194.952 57.27L194.951 57.268Z" fill="#EB41A2"/>
</svg>
