<svg width="16" height="16" viewBox="0 0 16 16" fill="none" xmlns="http://www.w3.org/2000/svg">
<rect width="16" height="16" fill="#EB41A2" fill-opacity="0.31"/>
<path fill-rule="evenodd" clip-rule="evenodd" d="M4.39305 0.0375139C4.34965 0.0834285 4.33554 0.729407 4.33554 2.67374V5.24909L3.46605 5.3134C2.59794 5.37761 0.447895 5.59549 0.154841 5.64891C0.0553615 5.66706 0 5.70617 0 5.75828C0 5.84366 0.39906 5.84159 3.41155 5.74029L4.36951 5.70803L4.40382 6.96295C4.42273 7.65313 4.45575 8.66007 4.47728 9.20061C4.49882 9.74115 4.50911 10.1916 4.50015 10.2016C4.49124 10.2115 4.1343 10.251 3.70698 10.2893C3.00725 10.3519 1.6415 10.515 1.17917 10.5913C1.06049 10.6108 1.00051 10.6472 1.00051 10.6997C1.00051 10.7702 1.12086 10.7752 2.10822 10.7461C2.71748 10.7282 3.50864 10.6986 3.86645 10.6803L4.51702 10.6471L4.54498 10.9697C4.578 11.3502 4.76543 15.3294 4.76481 15.6357C4.76452 15.7604 4.79483 15.8785 4.83918 15.9255C4.93332 16.025 4.97658 16.0249 5.07111 15.9249C5.13495 15.8574 5.14286 15.7401 5.12271 15.1563C5.10965 14.7774 5.0875 13.5929 5.07354 12.5239L5.0481 10.5805L6.13303 10.5184C7.28519 10.4524 9.30789 10.3626 9.6806 10.3609L9.90395 10.3598L9.92801 10.574C9.94126 10.6919 9.9869 11.7748 10.0295 12.9806C10.072 14.1864 10.127 15.2255 10.1517 15.2898C10.1859 15.3788 10.2274 15.4027 10.3271 15.3906L10.4577 15.3746L10.439 12.8672L10.4204 10.3598L11.0346 10.3559C11.3724 10.3538 11.681 10.3457 11.7203 10.3378C11.7596 10.3299 12.6279 10.3062 13.6498 10.2851C15.8292 10.2401 15.9785 10.2269 15.9988 10.0763C16.0067 10.0174 15.9752 9.92894 15.9287 9.87975C15.8492 9.79569 15.7118 9.79226 13.6512 9.8232C12.4451 9.84135 11.2194 9.87053 10.9275 9.88807L10.3967 9.91997L10.369 9.24527C10.3538 8.87422 10.3305 7.91485 10.317 7.11339L10.2926 5.65612L12.8788 5.68964C14.864 5.71539 15.4782 5.70909 15.5221 5.66257C15.6137 5.56575 15.5885 5.42161 15.4722 5.37701C15.3452 5.32827 12.8531 5.18402 11.3546 5.13866L10.2981 5.10666L10.2722 4.74705C10.258 4.54923 10.2329 3.88844 10.2165 3.2786C10.2 2.66875 10.1618 1.69351 10.1315 1.11139C10.0858 0.230042 10.0646 0.0529867 10.0051 0.0529867C9.91057 0.0529867 9.88332 0.542775 9.83587 3.0896L9.79904 5.0678L8.96114 5.06815C8.14415 5.06846 6.24699 5.13508 5.33367 5.19551L4.87868 5.22565L4.81946 3.97492C4.78682 3.28701 4.71659 2.13451 4.66333 1.41379C4.56676 0.106814 4.52559 -0.102699 4.39305 0.0375139ZM12.0997 1.64397C12.0423 1.75737 12.0792 1.83992 12.3526 2.20991C12.4304 2.31515 12.4861 2.40723 12.4764 2.41454C12.4667 2.42189 12.3493 2.50047 12.2155 2.58922C11.9096 2.79208 11.8048 2.91319 11.8433 3.01929C11.8882 3.14302 12.0706 3.12009 12.3873 2.95099C12.543 2.86783 12.6978 2.79995 12.7313 2.80015C12.7648 2.80035 12.8429 2.87917 12.9048 2.97539C13.0678 3.2286 13.4181 3.5558 13.5262 3.5558C13.6236 3.5558 13.7689 3.43196 13.7689 3.34895C13.7689 3.21615 13.6007 2.90337 13.4301 2.71905L13.2388 2.51226L13.3867 2.44745C13.4681 2.41181 13.6195 2.31762 13.7232 2.23814C13.9378 2.07368 13.9769 1.88256 13.8148 1.79078C13.6973 1.72431 13.5972 1.75187 13.208 1.95786L12.9091 2.11607L12.641 1.82793C12.352 1.51726 12.1914 1.46273 12.0997 1.64397ZM2.14266 1.82727C1.97725 1.94788 1.92065 2.03759 1.85528 2.28279L1.79825 2.49664L1.60439 2.34579C1.35693 2.15331 1.15378 2.14742 0.983167 2.32785C0.757862 2.56619 0.802885 2.70308 1.27446 3.21408C1.74065 3.71919 1.90235 3.83209 2.08954 3.78295C2.22509 3.74737 2.42981 3.56991 2.42981 3.48796C2.42981 3.46034 2.46173 3.40041 2.50075 3.3548C2.58946 3.25113 2.82444 2.16818 2.78604 2.04011C2.7443 1.90101 2.53072 1.74139 2.38636 1.74139C2.31709 1.74139 2.20741 1.78005 2.14266 1.82727ZM7.21796 2.0893C7.08694 2.16924 6.92777 2.29378 6.86426 2.36605C6.8007 2.43827 6.72452 2.49739 6.69494 2.49739C6.66535 2.49739 6.56725 2.4161 6.47692 2.31671C5.93541 1.72068 5.54492 2.00362 6.05804 2.62022L6.25809 2.86068L5.98762 3.11162C5.83888 3.24962 5.7172 3.39119 5.7172 3.42617C5.7172 3.46114 5.75812 3.52893 5.80815 3.57686C5.89429 3.65932 5.90753 3.65932 6.05828 3.57691C6.14585 3.52908 6.30078 3.43166 6.40264 3.3604L6.58783 3.23087L6.74934 3.42849C7.06379 3.81334 7.40034 3.93506 7.45956 3.68543C7.50168 3.50792 7.44546 3.367 7.23712 3.1279L7.05274 2.91627L7.31663 2.72399C7.71965 2.43031 7.82018 2.20739 7.63108 2.0264C7.51612 1.91633 7.49649 1.91935 7.21796 2.0893ZM9.83668 7.79168C9.85607 8.95824 9.86436 9.91957 9.85512 9.92794C9.84587 9.93625 9.2166 9.96997 8.45669 10.0027C7.69678 10.0355 6.90352 10.0741 6.69389 10.0885C5.50695 10.1698 5.07168 10.1925 5.0521 10.1743C5.04009 10.1631 5.01513 9.50281 4.99664 8.70704C4.97816 7.91128 4.94866 6.91517 4.93108 6.49347L4.89916 5.72673L5.36774 5.71126C5.62544 5.70274 6.72848 5.69009 7.81889 5.68319L9.80147 5.67064L9.83668 7.79168ZM12.5978 6.55375C12.5045 6.70434 12.5543 6.90408 12.7446 7.14338L12.8662 7.29624L12.6188 7.4546C12.3097 7.65257 12.255 7.73896 12.3293 7.91148C12.4013 8.07881 12.5211 8.07573 12.8875 7.89711L13.1734 7.75776L13.4882 8.10118C13.8071 8.4492 13.9152 8.5002 14.1056 8.39245C14.2843 8.29124 14.195 7.94711 13.9178 7.6683C13.766 7.51568 13.7625 7.43661 13.9075 7.43661C13.9544 7.43661 14.0818 7.36842 14.1906 7.2851C14.6407 6.94012 14.2644 6.6863 13.6701 6.93407L13.4248 7.03638L13.2157 6.85509C13.1007 6.7554 13.0066 6.64215 13.0066 6.60339C13.0066 6.52562 12.8635 6.4286 12.7488 6.4286C12.7084 6.4286 12.6404 6.4849 12.5978 6.55375ZM7.48877 6.83347C7.43912 6.88982 7.35789 7.02564 7.30825 7.13531C7.2586 7.24494 7.20239 7.3349 7.18333 7.33525C7.16427 7.33555 7.11286 7.27795 7.06908 7.20724C6.94101 7.00054 6.74339 6.91582 6.54819 6.98396C6.19416 7.10759 6.15518 7.38948 6.43156 7.82736C6.6846 8.22824 6.99761 8.52626 7.23726 8.5945C7.57262 8.69006 7.68911 8.56703 7.98235 7.80765C8.09865 7.50656 8.19398 7.20744 8.19422 7.14293C8.19446 7.07841 8.132 6.95937 8.05539 6.87832C7.88378 6.69678 7.62703 6.67647 7.48877 6.83347ZM2.94364 7.13431C2.76765 7.21318 2.50818 7.35879 2.36697 7.45793C2.2258 7.55711 2.09454 7.63821 2.07534 7.63821C2.05614 7.63821 1.94809 7.56805 1.83527 7.48232C1.66542 7.3533 1.61335 7.33596 1.53292 7.38147C1.37446 7.47118 1.36422 7.6125 1.50038 7.83018L1.62388 8.0276L1.32625 8.33192C1.04563 8.61884 1.03181 8.64379 1.08498 8.76722C1.13191 8.87619 1.17312 8.89821 1.3303 8.89821C1.4687 8.89821 1.53807 8.86968 1.58991 8.79141C1.62883 8.73265 1.74194 8.63265 1.84132 8.5692L2.02203 8.45383L2.25443 8.65967C2.38221 8.77287 2.53858 8.95224 2.60185 9.05823C2.69852 9.22032 2.74278 9.25101 2.87961 9.25101C3.06061 9.25101 3.17719 9.15505 3.22112 8.96993C3.2608 8.80265 3.15123 8.64041 2.80857 8.35893L2.52495 8.12593L2.82311 7.93703C3.43323 7.55046 3.68654 7.22382 3.51608 7.04349C3.43141 6.95392 3.29959 6.97484 2.94364 7.13431ZM7.55647 12.0755C7.46571 12.1599 7.37705 12.298 7.35951 12.3826L7.32759 12.5362L7.19872 12.4057C6.96669 12.1705 6.62342 12.2792 6.54424 12.6129C6.50546 12.7765 6.67216 13.1054 7.00357 13.5187C7.33064 13.9267 7.45394 13.985 7.70945 13.8521C7.86286 13.7723 7.89488 13.7209 7.9855 13.409C8.04186 13.215 8.14396 12.9315 8.21233 12.779C8.38175 12.4013 8.37632 12.2177 8.19098 12.0527C7.9865 11.8707 7.76858 11.8785 7.55647 12.0755ZM2.27497 12.1279C2.13113 12.2165 2.1662 12.5344 2.34758 12.7859L2.50356 13.0022L2.27611 13.2342C1.83989 13.679 2.08135 13.8298 2.62734 13.4537L2.75345 13.3668L3.03231 13.6855C3.42465 14.1339 3.72957 14.2447 3.86025 13.9864C3.93462 13.8394 3.80837 13.5777 3.52537 13.2921L3.28029 13.0449L3.55781 12.8811C4.02272 12.6066 4.1494 12.4253 3.98017 12.2767C3.88274 12.1912 3.70079 12.2447 3.31121 12.4734L2.97771 12.6691L2.70838 12.3713C2.42381 12.0565 2.40651 12.0468 2.27497 12.1279ZM13.8103 12.7493C13.6813 12.7934 13.6218 12.8635 13.5069 13.1066C13.4283 13.2729 13.3582 13.4189 13.3512 13.4309C13.3441 13.443 13.2584 13.3704 13.1606 13.2696C13.0628 13.1688 12.9016 13.0506 12.8023 13.0068C12.6377 12.9343 12.6079 12.9344 12.4613 13.0079C12.2858 13.096 12.1705 13.3181 12.2181 13.4766C12.2346 13.5316 12.4915 13.8168 12.7889 14.1103C13.2861 14.6008 13.3448 14.6438 13.5172 14.6438C13.7329 14.6438 13.8234 14.5572 14.0177 14.165C14.1852 13.8266 14.3883 13.2472 14.3883 13.1074C14.3883 12.9548 14.2261 12.7461 14.0853 12.7176C14.0223 12.7049 13.8986 12.7191 13.8103 12.7493Z" fill="white"/>
</svg>
